<mxfile host="app.diagrams.net" agent="Mozilla/5.0 (Macintosh; Intel Mac OS X 10_15_7) AppleWebKit/537.36 (KHTML, like Gecko) Chrome/130.0.0.0 Safari/537.36" version="24.9.0">
  <diagram name="ページ1" id="pnF3zEmfcZd1L1KH6jqc">
    <mxGraphModel dx="1434" dy="819" grid="1" gridSize="10" guides="1" tooltips="1" connect="1" arrows="1" fold="1" page="1" pageScale="1" pageWidth="827" pageHeight="1169" math="0" shadow="0">
      <root>
        <mxCell id="0" />
        <mxCell id="1" parent="0" />
        <mxCell id="r0PHLlI2CB_o4WWgAV2d-23" value="" style="rounded=1;whiteSpace=wrap;html=1;" vertex="1" parent="1">
          <mxGeometry x="20" y="50" width="360" height="460" as="geometry" />
        </mxCell>
        <mxCell id="r0PHLlI2CB_o4WWgAV2d-1" value="" style="ellipse;whiteSpace=wrap;html=1;aspect=fixed;fillColor=#000000;fontColor=#ffffff;strokeColor=none;" vertex="1" parent="1">
          <mxGeometry x="170" y="100" width="40" height="40" as="geometry" />
        </mxCell>
        <mxCell id="r0PHLlI2CB_o4WWgAV2d-2" value="" style="endArrow=classic;html=1;rounded=0;" edge="1" parent="1">
          <mxGeometry width="50" height="50" relative="1" as="geometry">
            <mxPoint x="189.5" y="140" as="sourcePoint" />
            <mxPoint x="190" y="170" as="targetPoint" />
          </mxGeometry>
        </mxCell>
        <mxCell id="r0PHLlI2CB_o4WWgAV2d-4" value="Unregisterd" style="rounded=1;whiteSpace=wrap;html=1;" vertex="1" parent="1">
          <mxGeometry x="145" y="170" width="90" height="50" as="geometry" />
        </mxCell>
        <mxCell id="r0PHLlI2CB_o4WWgAV2d-7" value="" style="endArrow=classic;html=1;rounded=0;" edge="1" parent="1">
          <mxGeometry width="50" height="50" relative="1" as="geometry">
            <mxPoint x="189.5" y="220" as="sourcePoint" />
            <mxPoint x="189.5" y="260" as="targetPoint" />
          </mxGeometry>
        </mxCell>
        <mxCell id="r0PHLlI2CB_o4WWgAV2d-8" value="Registerd" style="rounded=1;whiteSpace=wrap;html=1;" vertex="1" parent="1">
          <mxGeometry x="145" y="260" width="90" height="50" as="geometry" />
        </mxCell>
        <mxCell id="r0PHLlI2CB_o4WWgAV2d-11" value="" style="endArrow=classic;html=1;rounded=0;" edge="1" parent="1">
          <mxGeometry width="50" height="50" relative="1" as="geometry">
            <mxPoint x="189.5" y="310" as="sourcePoint" />
            <mxPoint x="189.5" y="350" as="targetPoint" />
          </mxGeometry>
        </mxCell>
        <mxCell id="r0PHLlI2CB_o4WWgAV2d-12" value="Borrowing" style="rounded=1;whiteSpace=wrap;html=1;" vertex="1" parent="1">
          <mxGeometry x="145" y="350" width="90" height="50" as="geometry" />
        </mxCell>
        <mxCell id="r0PHLlI2CB_o4WWgAV2d-13" value="" style="endArrow=classic;html=1;rounded=0;exitX=0;exitY=0.5;exitDx=0;exitDy=0;entryX=0;entryY=0.5;entryDx=0;entryDy=0;" edge="1" parent="1" source="r0PHLlI2CB_o4WWgAV2d-12" target="r0PHLlI2CB_o4WWgAV2d-8">
          <mxGeometry width="50" height="50" relative="1" as="geometry">
            <mxPoint x="60" y="370" as="sourcePoint" />
            <mxPoint x="70" y="290" as="targetPoint" />
            <Array as="points">
              <mxPoint x="70" y="375" />
              <mxPoint x="70" y="285" />
            </Array>
          </mxGeometry>
        </mxCell>
        <mxCell id="r0PHLlI2CB_o4WWgAV2d-15" value="" style="endArrow=classic;html=1;rounded=0;" edge="1" parent="1">
          <mxGeometry width="50" height="50" relative="1" as="geometry">
            <mxPoint x="189.5" y="400" as="sourcePoint" />
            <mxPoint x="189.5" y="440" as="targetPoint" />
          </mxGeometry>
        </mxCell>
        <mxCell id="r0PHLlI2CB_o4WWgAV2d-16" value="Overdue" style="rounded=1;whiteSpace=wrap;html=1;" vertex="1" parent="1">
          <mxGeometry x="145" y="440" width="90" height="50" as="geometry" />
        </mxCell>
        <mxCell id="r0PHLlI2CB_o4WWgAV2d-17" value="" style="endArrow=classic;html=1;rounded=0;exitX=0;exitY=0.5;exitDx=0;exitDy=0;entryX=1;entryY=0.5;entryDx=0;entryDy=0;" edge="1" parent="1" target="r0PHLlI2CB_o4WWgAV2d-8">
          <mxGeometry width="50" height="50" relative="1" as="geometry">
            <mxPoint x="235" y="470" as="sourcePoint" />
            <mxPoint x="235" y="380" as="targetPoint" />
            <Array as="points">
              <mxPoint x="300" y="470" />
              <mxPoint x="300" y="420" />
              <mxPoint x="300" y="285" />
            </Array>
          </mxGeometry>
        </mxCell>
        <mxCell id="r0PHLlI2CB_o4WWgAV2d-18" value="register" style="text;html=1;align=center;verticalAlign=middle;whiteSpace=wrap;rounded=0;" vertex="1" parent="1">
          <mxGeometry x="190" y="220" width="60" height="30" as="geometry" />
        </mxCell>
        <mxCell id="r0PHLlI2CB_o4WWgAV2d-19" value="borrow book" style="text;html=1;align=center;verticalAlign=middle;whiteSpace=wrap;rounded=0;" vertex="1" parent="1">
          <mxGeometry x="200" y="310" width="70" height="30" as="geometry" />
        </mxCell>
        <mxCell id="r0PHLlI2CB_o4WWgAV2d-20" value="deadline exceeded" style="text;html=1;align=center;verticalAlign=middle;whiteSpace=wrap;rounded=0;" vertex="1" parent="1">
          <mxGeometry x="210" y="410" width="70" height="30" as="geometry" />
        </mxCell>
        <mxCell id="r0PHLlI2CB_o4WWgAV2d-21" value="return book" style="text;html=1;align=center;verticalAlign=middle;whiteSpace=wrap;rounded=0;" vertex="1" parent="1">
          <mxGeometry x="75" y="310" width="70" height="30" as="geometry" />
        </mxCell>
        <mxCell id="r0PHLlI2CB_o4WWgAV2d-22" value="return overdue book" style="text;html=1;align=center;verticalAlign=middle;whiteSpace=wrap;rounded=0;" vertex="1" parent="1">
          <mxGeometry x="300" y="350" width="70" height="30" as="geometry" />
        </mxCell>
        <mxCell id="r0PHLlI2CB_o4WWgAV2d-24" value="Library&#39;s user" style="text;html=1;align=center;verticalAlign=middle;whiteSpace=wrap;rounded=0;" vertex="1" parent="1">
          <mxGeometry x="140" y="60" width="100" height="30" as="geometry" />
        </mxCell>
        <mxCell id="r0PHLlI2CB_o4WWgAV2d-25" value="" style="rounded=1;whiteSpace=wrap;html=1;" vertex="1" parent="1">
          <mxGeometry x="414" y="50" width="360" height="460" as="geometry" />
        </mxCell>
        <mxCell id="r0PHLlI2CB_o4WWgAV2d-26" value="" style="ellipse;whiteSpace=wrap;html=1;aspect=fixed;fillColor=#000000;fontColor=#ffffff;strokeColor=none;" vertex="1" parent="1">
          <mxGeometry x="574" y="160" width="40" height="40" as="geometry" />
        </mxCell>
        <mxCell id="r0PHLlI2CB_o4WWgAV2d-27" value="" style="endArrow=classic;html=1;rounded=0;" edge="1" parent="1">
          <mxGeometry width="50" height="50" relative="1" as="geometry">
            <mxPoint x="593.5" y="200" as="sourcePoint" />
            <mxPoint x="594" y="230" as="targetPoint" />
          </mxGeometry>
        </mxCell>
        <mxCell id="r0PHLlI2CB_o4WWgAV2d-28" value="Available" style="rounded=1;whiteSpace=wrap;html=1;" vertex="1" parent="1">
          <mxGeometry x="549" y="230" width="90" height="50" as="geometry" />
        </mxCell>
        <mxCell id="r0PHLlI2CB_o4WWgAV2d-29" value="" style="endArrow=classic;html=1;rounded=0;" edge="1" parent="1">
          <mxGeometry width="50" height="50" relative="1" as="geometry">
            <mxPoint x="593.5" y="280" as="sourcePoint" />
            <mxPoint x="593.5" y="320" as="targetPoint" />
          </mxGeometry>
        </mxCell>
        <mxCell id="r0PHLlI2CB_o4WWgAV2d-30" value="Borrowed" style="rounded=1;whiteSpace=wrap;html=1;" vertex="1" parent="1">
          <mxGeometry x="549" y="320" width="90" height="50" as="geometry" />
        </mxCell>
        <mxCell id="r0PHLlI2CB_o4WWgAV2d-32" value="discard" style="rounded=1;whiteSpace=wrap;html=1;" vertex="1" parent="1">
          <mxGeometry x="549" y="400" width="90" height="50" as="geometry" />
        </mxCell>
        <mxCell id="r0PHLlI2CB_o4WWgAV2d-33" value="" style="endArrow=classic;html=1;rounded=0;exitX=0;exitY=0.5;exitDx=0;exitDy=0;entryX=0;entryY=0.5;entryDx=0;entryDy=0;" edge="1" parent="1">
          <mxGeometry width="50" height="50" relative="1" as="geometry">
            <mxPoint x="549" y="340" as="sourcePoint" />
            <mxPoint x="549" y="250" as="targetPoint" />
            <Array as="points">
              <mxPoint x="474" y="340" />
              <mxPoint x="474" y="250" />
            </Array>
          </mxGeometry>
        </mxCell>
        <mxCell id="r0PHLlI2CB_o4WWgAV2d-36" value="" style="endArrow=classic;html=1;rounded=0;exitX=1;exitY=0.5;exitDx=0;exitDy=0;" edge="1" parent="1" source="r0PHLlI2CB_o4WWgAV2d-28">
          <mxGeometry width="50" height="50" relative="1" as="geometry">
            <mxPoint x="639" y="530" as="sourcePoint" />
            <mxPoint x="640" y="423" as="targetPoint" />
            <Array as="points">
              <mxPoint x="670" y="255" />
              <mxPoint x="704" y="255" />
              <mxPoint x="704" y="423" />
              <mxPoint x="670" y="423" />
            </Array>
          </mxGeometry>
        </mxCell>
        <mxCell id="r0PHLlI2CB_o4WWgAV2d-37" value="borrow" style="text;html=1;align=center;verticalAlign=middle;whiteSpace=wrap;rounded=0;" vertex="1" parent="1">
          <mxGeometry x="594" y="280" width="60" height="30" as="geometry" />
        </mxCell>
        <mxCell id="r0PHLlI2CB_o4WWgAV2d-40" value="return" style="text;html=1;align=center;verticalAlign=middle;whiteSpace=wrap;rounded=0;" vertex="1" parent="1">
          <mxGeometry x="470" y="280" width="70" height="30" as="geometry" />
        </mxCell>
        <mxCell id="r0PHLlI2CB_o4WWgAV2d-41" value="damaged or used for certain period" style="text;html=1;align=center;verticalAlign=middle;whiteSpace=wrap;rounded=0;" vertex="1" parent="1">
          <mxGeometry x="710" y="340" width="56" height="30" as="geometry" />
        </mxCell>
        <mxCell id="r0PHLlI2CB_o4WWgAV2d-42" value="book&#39;s statemachine" style="text;html=1;align=center;verticalAlign=middle;whiteSpace=wrap;rounded=0;" vertex="1" parent="1">
          <mxGeometry x="544" y="120" width="100" height="30" as="geometry" />
        </mxCell>
      </root>
    </mxGraphModel>
  </diagram>
</mxfile>
